<?xml version="1.0" encoding="utf-8"?>
<!-- Generator: Adobe Illustrator 19.0.0, SVG Export Plug-In . SVG Version: 6.00 Build 0)  -->
<svg version="1.1" id="layer" xmlns="http://www.w3.org/2000/svg" xmlns:xlink="http://www.w3.org/1999/xlink" x="0px" y="0px"
	 viewBox="-153 -46 652 652" style="enable-background:new -153 -46 652 652;" xml:space="preserve">
<style type="text/css">
	.st0{fill:#010202;}
</style>
<path class="st0" d="M178.6,441.1l0.6,0.1c10.3,1.4,22.2,2,35.3,2c70,0,155.6-19.4,156.4-19.6l0.9-0.2h29.9l-15.5-19.6l-0.5-1.2
	c-6.6-18-23.2-50.3-23.4-50.6l-0.4-0.9c-24.7-65.8-99.7-166.9-100.4-167.9l-0.3-0.5L170.8,42.2h-31L-78.9,417.1l16,26.1L178.6,441.1
	 M-72,459.5l-25.8-42.2L130.5,26h49.2l94.9,147.8c5,6.7,76.9,104.2,102.2,171.2c2.1,4,16.7,32.7,23.6,50.8l34.8,43.8h-61.6
	c-9.9,2.2-90.5,19.8-159.2,19.8c-13.6,0-26-0.7-36.9-2.1L-72,459.5"/>
<path class="st0" d="M138.5,257.9c-13,0-14.2-4.4-14.2-4.4c-1.6-8.8,7-9.3,8.9-9.3c0.2,0,0.4,0,0.4,0H158
	c32-0.5,35.7-16.8,35.7-16.8c10.1-21-8.3-25.8-8.3-25.8c-5.6-2-11.6-2.7-17.1-2.7c-12.7,0-23.3,3.7-23.3,3.7
	c-1.5,0.3-2.8,0.4-3.9,0.4c-10,0-7-9.2-7-9.2c2.1-6.4,26.1-8.6,26.1-8.6c21.9-6.4,19.6-19.9,19.6-19.9c-3.1-13.5-19.8-14-19.8-14
	c-1.2-0.1-2.5-0.2-3.8-0.2c-14.8,0-30.2,8.2-30.2,8.2c-2.6,1.3-4.7,1.8-6.2,1.8c-4.5,0-5.2-3.9-5.2-3.9c-0.8-6.8,6-9.8,6-9.8
	c15.5-8.6,33.8-8.8,33.8-8.8c30.7,2.2,34.1,20.3,34.1,20.3c6.2,18.1-11.3,29.9-11.3,29.9c6.4,0.8,19.3,6.8,19.3,6.8
	c16.7,13.7,10.6,29.9,10.6,29.9c-4.7,24.7-31,29.6-31,29.6c-11,2.9-30.8,3.1-34.8,3.1c-0.5,0-0.7,0-0.7,0
	C139.9,257.9,139.2,257.9,138.5,257.9"/>
<path class="st0" d="M116.9,391c-0.6,0-1.1,0-1.8-0.1c0,0-0.8,0-2.2,0c-5.8,0-21.7-0.4-30.6-4.8c0,0-24.5-10.4-32.7-22.8
	c0,0-20.9-28.1,3.4-56c0,0,21.9-23,47.7-26c0,0,0.9-0.1,2.4-0.1c4.5,0,14.5,0.6,21.4,5.8c0,0,2.7,3.8-2.4,3.8c-0.1,0-0.2,0-0.3,0
	c0,0-2.7-1.1-7.9-1.1c-2.6,0-5.8,0.3-9.5,1.1c0,0-21.1,7-31.5,17c0,0-24.3,13.8-16,38.9c0,0,7.6,21.8,36.4,29.2
	c0,0,8.4,1.7,17.6,1.7c2,0,4.1-0.1,6.1-0.3c0,0,0.5-0.1,1.2-0.1c2.7,0,9.4,0.7,8.6,7.6C126.8,384.9,126,391,116.9,391"/>
<path class="st0" d="M224.7,388.1c-0.7,0-1.4,0-1.9,0l-30.5-0.7c0,0-7.6-0.2-6.7-10.4l1.1-40.8c0,0-3.9-1.9-3.3-7.7
	c0,0,0.3-2,3.1-3.9V285c0,0,0.6-6.8,6.4-7.3h68.6c0,0,7.6,1.8,5.4,10c0,0-2.2,3.6-8.1,3.6c-0.1,0-0.2,0-0.4,0l-58.5-0.3v32
	c0,0,35.9-2.1,38.4-2.1l30.2-0.6c0,0,6,1.8,6.2,6.4c0,0,1.1,6-6.7,7.3l-68.1,2.3l-0.8,37.6c0,0,82.9,5.7,85.1,6.2c0,0,3.1,2.8,0,4.3
	C284.2,384.3,238.3,388.1,224.7,388.1"/>
<path class="st0" d="M-33.1,526c-7.6,0-13.1-1.8-18-6.7l5.1-5.1c3.7,3.7,7.8,4.8,13,4.8c6.6,0,10.5-2.8,10.5-7.8
	c0-2.2-0.6-4.1-2-5.3c-1.3-1.2-2.6-1.7-5.6-2.1l-6-0.9c-4.1-0.6-7.4-2-9.6-4.1c-2.5-2.4-3.7-5.6-3.7-9.7c0-8.9,6.4-14.9,17-14.9
	c6.7,0,11.4,1.7,15.8,5.8l-4.9,4.9c-3.1-3-6.8-3.9-11.1-3.9c-6,0-9.3,3.4-9.3,7.9c0,1.9,0.6,3.5,1.9,4.7c1.3,1.1,3.4,2,5.7,2.3
	l5.8,0.9c4.7,0.7,7.3,1.9,9.5,3.8c2.8,2.4,4.1,6.1,4.1,10.4C-14.9,520.4-22.5,526-33.1,526"/>
<polyline class="st0" points="12.7,525.6 5,525.6 5,481.7 -9,481.7 -9,474.8 26.7,474.8 26.7,481.7 12.7,481.7 12.7,525.6 "/>
<polyline class="st0" points="52.1,525.6 44.4,525.6 44.4,504.7 29.2,474.8 37.6,474.8 48.2,497.1 58.8,474.8 67.3,474.8 
	52.1,504.7 52.1,525.6 "/>
<polyline class="st0" points="106.4,525.6 74.3,525.6 74.3,474.8 82,474.8 82,518.7 106.4,518.7 106.4,525.6 "/>
<polyline class="st0" points="147.7,525.6 115.2,525.6 115.2,474.8 147.7,474.8 147.7,481.7 122.9,481.7 122.9,496.5 144,496.5 
	144,503.4 122.9,503.4 122.9,518.7 147.7,518.7 147.7,525.6 "/>
<polyline class="st0" points="196.5,525.6 189.4,525.6 165.9,489.8 165.9,525.6 158.2,525.6 158.2,474.8 165.3,474.8 188.8,510.4 
	188.8,474.8 196.5,474.8 196.5,525.6 "/>
<path class="st0" d="M225.6,486.3l-7.9,22.5h15.6L225.6,486.3 M247.1,525.6h-8.2l-3.5-10.2h-20l-3.5,10.2h-8.2l18.6-50.8h6.2
	L247.1,525.6"/>
<polyline class="st0" points="292.6,525.6 285.5,525.6 262.1,489.8 262.1,525.6 254.3,525.6 254.3,474.8 261.4,474.8 284.9,510.4 
	284.9,474.8 292.6,474.8 292.6,525.6 "/>
<path class="st0" d="M313.6,481.7v37h9.3c3.6,0,6.5-1.1,8.6-3.4c2.6-2.9,2.7-8.4,2.7-15.4c0-7-0.1-11.8-2.7-14.7
	c-2.1-2.3-5-3.4-8.6-3.4H313.6 M323.7,525.6h-17.8v-50.8h17.8c5.3,0,9.9,1.6,13.1,4.8c5.5,5.5,5.1,12.9,5.1,20.3
	c0,7.3,0.4,15.5-5.1,21C333.6,524,329,525.6,323.7,525.6"/>
<path class="st0" d="M368.5,486.3l-7.9,22.5h15.6L368.5,486.3 M390,525.6h-8.2l-3.5-10.2h-20l-3.5,10.2h-8.2l18.6-50.8h6.2
	L390,525.6"/>
</svg>
