<svg width="9" height="29" viewBox="0 0 9 29" fill="none" xmlns="http://www.w3.org/2000/svg">
<path d="M4.5 8.82609C2.01472 8.82609 0 6.8503 0 4.41304C0 1.97579 2.01472 0 4.5 0C6.98528 0 9 1.97579 9 4.41304C9 6.8503 6.98528 8.82609 4.5 8.82609Z" fill="#FF4D4D"/>
<path d="M3.14094 5.66063C3.1042 5.68205 3.08277 5.70048 3.07142 5.71207L3.07142 26.3003C3.07142 26.3004 3.07142 26.3004 3.07142 26.3005C3.07161 26.4807 3.13215 26.6761 3.27749 26.8785C3.27754 26.8786 3.27759 26.8787 3.27763 26.8787L4.44027 28.4938C4.45575 28.4973 4.47617 28.5 4.49999 28.5C4.5238 28.5 4.54423 28.4973 4.5597 28.4938L5.72234 26.8787C5.8678 26.6762 5.92839 26.4807 5.92856 26.3004V5.71207C5.9172 5.70048 5.89577 5.68205 5.85903 5.66063C5.74731 5.59551 5.56253 5.54346 5.34374 5.54346H3.65624C3.43745 5.54346 3.25267 5.59551 3.14094 5.66063Z" stroke="#FF4D4D"/>
</svg>
