<svg width="9" height="29" viewBox="0 0 9 29" fill="none" xmlns="http://www.w3.org/2000/svg">
<path d="M4.5 8.82609C2.01472 8.82609 0 6.8503 0 4.41304C0 1.97579 2.01472 0 4.5 0C6.98528 0 9 1.97579 9 4.41304C9 6.8503 6.98528 8.82609 4.5 8.82609Z" fill="#FF4D4D"/>
<path d="M3.14097 5.66063C3.10423 5.68205 3.0828 5.70048 3.07145 5.71207L3.07145 26.3003C3.07145 26.3004 3.07145 26.3004 3.07145 26.3005C3.07164 26.4807 3.13218 26.6761 3.27752 26.8785C3.27757 26.8786 3.27762 26.8787 3.27766 26.8787L4.44031 28.4938C4.45578 28.4973 4.4762 28.5 4.50002 28.5C4.52383 28.5 4.54426 28.4973 4.55973 28.4938L5.72237 26.8787C5.86784 26.6762 5.92842 26.4807 5.92859 26.3004V5.71207C5.91723 5.70048 5.89581 5.68205 5.85906 5.66063C5.74734 5.59551 5.56256 5.54346 5.34377 5.54346H3.65627C3.43748 5.54346 3.2527 5.59551 3.14097 5.66063Z" stroke="#FF4D4D"/>
</svg>
