<svg xmlns="http://www.w3.org/2000/svg"  viewBox="0 0 3333 3333" shape-rendering="geometricPrecision" text-rendering="geometricPrecision" image-rendering="optimizeQuality" fill-rule="evenodd" clip-rule="evenodd"><path d="M3021 0H313C141 0 0 141 0 312v2708c0 172 141 312 313 312h2708c172 0 313-141 313-312V312c0-172-141-312-313-312zm-441 1294s-18-129-74-185c-71-74-151-75-187-79-261-19-652-19-652-19h-1s-392 0-652 19c-36 4-116 5-187 79-56 56-74 185-74 185s-19 151-19 302v141c0 151 19 302 19 302s18 129 74 185c71 74 164 72 206 80 149 14 634 19 634 19s392-1 653-19c36-4 116-5 187-79 56-56 74-185 74-185s19-151 19-302v-141c0-151-19-302-19-302zm-1107 615v-524l504 263-504 261z"/></svg>